<mxfile host="Electron" modified="2024-10-01T06:19:52.639Z" agent="Mozilla/5.0 (Windows NT 10.0; Win64; x64) AppleWebKit/537.36 (KHTML, like Gecko) draw.io/21.7.5 Chrome/114.0.5735.289 Electron/25.8.1 Safari/537.36" etag="Za-TSjl6sHvXDhx9cHr7" version="21.7.5" type="device">
  <diagram name="PÃ¡gina-1" id="RHTbMrH3GBHZnW84JdR2">
    <mxGraphModel dx="1658" dy="820" grid="1" gridSize="10" guides="1" tooltips="1" connect="1" arrows="1" fold="1" page="1" pageScale="1" pageWidth="827" pageHeight="1169" math="0" shadow="0">
      <root>
        <mxCell id="0" />
        <mxCell id="1" parent="0" />
        <mxCell id="X1JmU00C22sQTFtOCtO2-5" style="edgeStyle=orthogonalEdgeStyle;rounded=0;orthogonalLoop=1;jettySize=auto;html=1;entryX=0.5;entryY=0;entryDx=0;entryDy=0;" edge="1" parent="1" source="X1JmU00C22sQTFtOCtO2-1" target="X1JmU00C22sQTFtOCtO2-4">
          <mxGeometry relative="1" as="geometry" />
        </mxCell>
        <mxCell id="X1JmU00C22sQTFtOCtO2-1" value="Inicio Act24T2" style="rounded=1;whiteSpace=wrap;html=1;" vertex="1" parent="1">
          <mxGeometry x="354" y="40" width="120" height="60" as="geometry" />
        </mxCell>
        <mxCell id="X1JmU00C22sQTFtOCtO2-29" style="edgeStyle=orthogonalEdgeStyle;rounded=0;orthogonalLoop=1;jettySize=auto;html=1;entryX=0.5;entryY=0;entryDx=0;entryDy=0;" edge="1" parent="1" source="X1JmU00C22sQTFtOCtO2-3" target="X1JmU00C22sQTFtOCtO2-7">
          <mxGeometry relative="1" as="geometry" />
        </mxCell>
        <mxCell id="X1JmU00C22sQTFtOCtO2-36" style="edgeStyle=orthogonalEdgeStyle;rounded=0;orthogonalLoop=1;jettySize=auto;html=1;" edge="1" parent="1" source="X1JmU00C22sQTFtOCtO2-41" target="X1JmU00C22sQTFtOCtO2-35">
          <mxGeometry relative="1" as="geometry" />
        </mxCell>
        <mxCell id="X1JmU00C22sQTFtOCtO2-3" value="I&amp;lt;7" style="rhombus;whiteSpace=wrap;html=1;" vertex="1" parent="1">
          <mxGeometry x="354" y="300" width="120" height="80" as="geometry" />
        </mxCell>
        <mxCell id="X1JmU00C22sQTFtOCtO2-6" style="edgeStyle=orthogonalEdgeStyle;rounded=0;orthogonalLoop=1;jettySize=auto;html=1;entryX=0.5;entryY=0;entryDx=0;entryDy=0;" edge="1" parent="1" source="X1JmU00C22sQTFtOCtO2-10" target="X1JmU00C22sQTFtOCtO2-3">
          <mxGeometry relative="1" as="geometry" />
        </mxCell>
        <mxCell id="X1JmU00C22sQTFtOCtO2-4" value="I = 1" style="rounded=0;whiteSpace=wrap;html=1;" vertex="1" parent="1">
          <mxGeometry x="354" y="130" width="120" height="30" as="geometry" />
        </mxCell>
        <mxCell id="X1JmU00C22sQTFtOCtO2-30" style="edgeStyle=orthogonalEdgeStyle;rounded=0;orthogonalLoop=1;jettySize=auto;html=1;" edge="1" parent="1" source="X1JmU00C22sQTFtOCtO2-7" target="X1JmU00C22sQTFtOCtO2-12">
          <mxGeometry relative="1" as="geometry" />
        </mxCell>
        <mxCell id="X1JmU00C22sQTFtOCtO2-7" value="Leer nota" style="shape=parallelogram;perimeter=parallelogramPerimeter;whiteSpace=wrap;html=1;fixedSize=1;" vertex="1" parent="1">
          <mxGeometry x="354" y="410" width="120" height="40" as="geometry" />
        </mxCell>
        <mxCell id="X1JmU00C22sQTFtOCtO2-9" value="" style="edgeStyle=orthogonalEdgeStyle;rounded=0;orthogonalLoop=1;jettySize=auto;html=1;entryX=0.5;entryY=0;entryDx=0;entryDy=0;" edge="1" parent="1" source="X1JmU00C22sQTFtOCtO2-4" target="X1JmU00C22sQTFtOCtO2-8">
          <mxGeometry relative="1" as="geometry">
            <mxPoint x="414" y="160" as="sourcePoint" />
            <mxPoint x="414" y="300" as="targetPoint" />
          </mxGeometry>
        </mxCell>
        <mxCell id="X1JmU00C22sQTFtOCtO2-8" value="aprobados = 0" style="rounded=0;whiteSpace=wrap;html=1;" vertex="1" parent="1">
          <mxGeometry x="354" y="190" width="120" height="30" as="geometry" />
        </mxCell>
        <mxCell id="X1JmU00C22sQTFtOCtO2-11" value="" style="edgeStyle=orthogonalEdgeStyle;rounded=0;orthogonalLoop=1;jettySize=auto;html=1;entryX=0.5;entryY=0;entryDx=0;entryDy=0;" edge="1" parent="1" source="X1JmU00C22sQTFtOCtO2-8" target="X1JmU00C22sQTFtOCtO2-10">
          <mxGeometry relative="1" as="geometry">
            <mxPoint x="414" y="220" as="sourcePoint" />
            <mxPoint x="414" y="300" as="targetPoint" />
          </mxGeometry>
        </mxCell>
        <mxCell id="X1JmU00C22sQTFtOCtO2-10" value="suspendidos = 0" style="rounded=0;whiteSpace=wrap;html=1;" vertex="1" parent="1">
          <mxGeometry x="354" y="240" width="120" height="30" as="geometry" />
        </mxCell>
        <mxCell id="X1JmU00C22sQTFtOCtO2-17" style="edgeStyle=orthogonalEdgeStyle;rounded=0;orthogonalLoop=1;jettySize=auto;html=1;entryX=0.5;entryY=0;entryDx=0;entryDy=0;" edge="1" parent="1" source="X1JmU00C22sQTFtOCtO2-12" target="X1JmU00C22sQTFtOCtO2-13">
          <mxGeometry relative="1" as="geometry" />
        </mxCell>
        <mxCell id="X1JmU00C22sQTFtOCtO2-18" style="edgeStyle=orthogonalEdgeStyle;rounded=0;orthogonalLoop=1;jettySize=auto;html=1;entryX=1;entryY=0.5;entryDx=0;entryDy=0;" edge="1" parent="1" source="X1JmU00C22sQTFtOCtO2-12" target="X1JmU00C22sQTFtOCtO2-14">
          <mxGeometry relative="1" as="geometry" />
        </mxCell>
        <mxCell id="X1JmU00C22sQTFtOCtO2-12" value="nota &amp;lt; 5" style="rhombus;whiteSpace=wrap;html=1;" vertex="1" parent="1">
          <mxGeometry x="374" y="470" width="80" height="80" as="geometry" />
        </mxCell>
        <mxCell id="X1JmU00C22sQTFtOCtO2-27" style="edgeStyle=orthogonalEdgeStyle;rounded=0;orthogonalLoop=1;jettySize=auto;html=1;entryX=0.5;entryY=0;entryDx=0;entryDy=0;" edge="1" parent="1" source="X1JmU00C22sQTFtOCtO2-13" target="X1JmU00C22sQTFtOCtO2-22">
          <mxGeometry relative="1" as="geometry" />
        </mxCell>
        <mxCell id="X1JmU00C22sQTFtOCtO2-13" value="suspend++" style="rounded=0;whiteSpace=wrap;html=1;" vertex="1" parent="1">
          <mxGeometry x="356" y="585" width="116" height="30" as="geometry" />
        </mxCell>
        <mxCell id="X1JmU00C22sQTFtOCtO2-28" style="edgeStyle=orthogonalEdgeStyle;rounded=0;orthogonalLoop=1;jettySize=auto;html=1;entryX=0;entryY=0.5;entryDx=0;entryDy=0;" edge="1" parent="1" source="X1JmU00C22sQTFtOCtO2-14" target="X1JmU00C22sQTFtOCtO2-22">
          <mxGeometry relative="1" as="geometry">
            <Array as="points">
              <mxPoint x="260" y="675" />
            </Array>
          </mxGeometry>
        </mxCell>
        <mxCell id="X1JmU00C22sQTFtOCtO2-14" value="aprobados++" style="rounded=0;whiteSpace=wrap;html=1;" vertex="1" parent="1">
          <mxGeometry x="210" y="495" width="116" height="30" as="geometry" />
        </mxCell>
        <mxCell id="X1JmU00C22sQTFtOCtO2-19" value="SI" style="text;html=1;strokeColor=none;fillColor=none;align=center;verticalAlign=middle;whiteSpace=wrap;rounded=0;" vertex="1" parent="1">
          <mxGeometry x="400" y="555" width="60" height="30" as="geometry" />
        </mxCell>
        <mxCell id="X1JmU00C22sQTFtOCtO2-20" value="NO" style="text;html=1;strokeColor=none;fillColor=none;align=center;verticalAlign=middle;whiteSpace=wrap;rounded=0;" vertex="1" parent="1">
          <mxGeometry x="320" y="480" width="60" height="30" as="geometry" />
        </mxCell>
        <mxCell id="X1JmU00C22sQTFtOCtO2-22" value="I++" style="rounded=0;whiteSpace=wrap;html=1;" vertex="1" parent="1">
          <mxGeometry x="356" y="660" width="116" height="30" as="geometry" />
        </mxCell>
        <mxCell id="X1JmU00C22sQTFtOCtO2-26" value="" style="endArrow=classic;html=1;rounded=0;exitX=1;exitY=0.5;exitDx=0;exitDy=0;" edge="1" parent="1" source="X1JmU00C22sQTFtOCtO2-22">
          <mxGeometry width="50" height="50" relative="1" as="geometry">
            <mxPoint x="390" y="550" as="sourcePoint" />
            <mxPoint x="414" y="280" as="targetPoint" />
            <Array as="points">
              <mxPoint x="680" y="675" />
              <mxPoint x="680" y="280" />
            </Array>
          </mxGeometry>
        </mxCell>
        <mxCell id="X1JmU00C22sQTFtOCtO2-31" value="SI" style="text;html=1;strokeColor=none;fillColor=none;align=center;verticalAlign=middle;whiteSpace=wrap;rounded=0;" vertex="1" parent="1">
          <mxGeometry x="400" y="370" width="60" height="30" as="geometry" />
        </mxCell>
        <mxCell id="X1JmU00C22sQTFtOCtO2-34" value="NO" style="text;html=1;strokeColor=none;fillColor=none;align=center;verticalAlign=middle;whiteSpace=wrap;rounded=0;" vertex="1" parent="1">
          <mxGeometry x="310" y="310" width="60" height="30" as="geometry" />
        </mxCell>
        <mxCell id="X1JmU00C22sQTFtOCtO2-35" value="FIn Act24T2" style="rounded=1;whiteSpace=wrap;html=1;" vertex="1" parent="1">
          <mxGeometry x="20" y="460" width="120" height="60" as="geometry" />
        </mxCell>
        <mxCell id="X1JmU00C22sQTFtOCtO2-38" value="" style="edgeStyle=orthogonalEdgeStyle;rounded=0;orthogonalLoop=1;jettySize=auto;html=1;" edge="1" parent="1" source="X1JmU00C22sQTFtOCtO2-3" target="X1JmU00C22sQTFtOCtO2-37">
          <mxGeometry relative="1" as="geometry">
            <mxPoint x="354" y="340" as="sourcePoint" />
            <mxPoint x="130" y="340" as="targetPoint" />
          </mxGeometry>
        </mxCell>
        <mxCell id="X1JmU00C22sQTFtOCtO2-37" value="Escribir aprobados" style="shape=parallelogram;perimeter=parallelogramPerimeter;whiteSpace=wrap;html=1;fixedSize=1;" vertex="1" parent="1">
          <mxGeometry x="150" y="320" width="140" height="40" as="geometry" />
        </mxCell>
        <mxCell id="X1JmU00C22sQTFtOCtO2-42" value="" style="edgeStyle=orthogonalEdgeStyle;rounded=0;orthogonalLoop=1;jettySize=auto;html=1;" edge="1" parent="1" source="X1JmU00C22sQTFtOCtO2-37" target="X1JmU00C22sQTFtOCtO2-41">
          <mxGeometry relative="1" as="geometry">
            <mxPoint x="180" y="340" as="sourcePoint" />
            <mxPoint x="80" y="460" as="targetPoint" />
            <Array as="points">
              <mxPoint x="80" y="340" />
            </Array>
          </mxGeometry>
        </mxCell>
        <mxCell id="X1JmU00C22sQTFtOCtO2-41" value="Escribir suspendidos" style="shape=parallelogram;perimeter=parallelogramPerimeter;whiteSpace=wrap;html=1;fixedSize=1;" vertex="1" parent="1">
          <mxGeometry x="10" y="390" width="140" height="40" as="geometry" />
        </mxCell>
      </root>
    </mxGraphModel>
  </diagram>
</mxfile>
